Coordinates
version=1
nRows=12
nColumns=23
inDegrees=yes

Units are S.I. units (second, meters, Newtons, ...)
If the header above contains a line with 'inDegrees', this indicates whether rotational values are in degrees (yes) or radians (no).

endheader
time	pelvis_tilt	pelvis_list	pelvis_rotation	pelvis_tx	pelvis_ty	pelvis_tz	hip_flexion_r	hip_adduction_r	hip_rotation_r	knee_angle_r	knee_angle_r_beta	ankle_angle_r	subtalar_angle_r	mtp_angle_r	hip_flexion_l	hip_adduction_l	hip_rotation_l	knee_angle_l	knee_angle_l_beta	ankle_angle_l	subtalar_angle_l	mtp_angle_l
     15.00000000	    -14.77950782	     -2.63138743	     -6.06606606	      2.20859319	      1.03864745	      1.02215718	     42.63831276	      6.50798651	    -10.77539676	     13.47013725	      0.23509825	      5.24621710	      9.43542593	      0.00000000	    -10.38497355	     -5.43838900	    -16.15413213	     45.36812196	      0.79182310	    -20.76201061	     -7.10134726	      0.00000000
     15.00666667	    -14.37269409	     -2.55159414	     -6.12758584	      2.20840914	      1.03684386	      1.02254119	     41.89742952	      6.55205157	    -10.35927295	     12.93807721	      0.22581205	      4.87150658	      8.15303659	      0.00000000	     -9.98806518	     -5.63786818	    -16.01853363	     48.73837841	      0.85064518	    -20.67841034	     -8.13287330	      0.00000000
     15.01333333	    -13.77890638	     -2.52774286	     -6.25873041	      2.20811066	      1.03481908	      1.02291242	     41.28262207	      6.45345460	    -10.76976054	     13.56224710	      0.23670587	      4.73990895	      7.51278437	      0.00000000	     -9.71852749	     -5.88192480	    -15.98124742	     52.09806274	      0.90928273	    -20.55664802	     -9.11521096	      0.00000000
     15.02000000	    -13.13005717	     -2.54084201	     -6.41546290	      2.20769869	      1.03248975	      1.02313861	     40.77026447	      6.28378336	    -11.37683696	     14.95189835	      0.26095986	      4.44855763	      6.61839326	      0.00000000	     -9.41036520	     -6.14859277	    -15.94492495	     55.44958145	      0.96777777	    -20.32587911	    -10.02402419	      0.00000000
     15.02666667	    -12.52812632	     -2.48277601	     -6.60975447	      2.20711624	      1.02959946	      1.02322783	     40.57505091	      5.90540100	    -12.23902998	     17.29899447	      0.30192441	      4.23375022	      5.75181588	      0.00000000	     -8.93292744	     -6.30061390	    -15.85151753	     58.79457265	      1.02615888	    -19.83839289	    -10.82859895	      0.00000000
     15.03333333	    -11.75375891	     -2.43095499	     -6.88586528	      2.20654854	      1.02644158	      1.02316732	     40.37927994	      5.32379143	    -13.50215587	     20.47976083	      0.35743926	      4.18117059	      5.59145310	      0.00000000	     -8.59892951	     -6.40372208	    -15.83396851	     62.02791800	      1.08259140	    -19.20011006	    -11.66897853	      0.00000000
     15.04000000	    -10.81063656	     -2.59626577	     -7.18635466	      2.20597914	      1.02332710	      1.02299560	     39.82122584	      5.04790016	    -13.96087700	     23.62662124	      0.41236233	      3.82428094	      4.06128852	      0.00000000	     -8.40771236	     -6.73539964	    -15.90518857	     65.18464591	      1.13768669	    -18.34002588	    -12.33857508	      0.00000000
     15.04666667	    -10.02917059	     -2.57319587	     -7.50332677	      2.20515811	      1.01962941	      1.02265760	     39.55152673	      4.56452333	    -14.13369120	     27.25956720	      0.47576920	      3.94298205	      2.48390302	      0.00000000	     -7.88085647	     -6.86799567	    -15.91772472	     68.32900909	      1.19256618	    -17.17307987	    -12.88346046	      0.00000000
     15.05333333	     -9.46342548	     -2.44971336	     -7.91247303	      2.20411646	      1.01541655	      1.02231826	     39.52027812	      4.09817949	    -13.86575777	     31.09264601	      0.54266905	      4.43451542	      1.06121774	      0.00000000	     -6.98173847	     -6.85710106	    -15.89577923	     71.43543512	      1.24678355	    -15.91878072	    -13.38387903	      0.00000000
     15.06000000	     -8.83323324	     -2.50720335	     -8.31466630	      2.20296749	      1.01138745	      1.02197327	     39.22658446	      3.90550082	    -13.29135048	     34.73597929	      0.60625721	      5.34921672	     -0.53721151	      0.00000000	     -6.07617545	     -7.09127578	    -15.92999401	     74.46288862	      1.29962258	    -14.58013602	    -13.74352931	      0.00000000
     15.06666667	     -8.39209074	     -2.63110896	     -8.73888529	      2.20157285	      1.00729393	      1.02171863	     38.95158884	      3.93209104	    -12.45270921	     38.13764925	      0.66562755	      6.65831492	     -2.10191111	      0.00000000	     -4.83335618	     -7.44917775	    -15.93797854	     77.44826113	      1.35172716	    -13.18328411	    -14.01394163	      0.00000000
     15.07333333	     -8.11952813	     -2.81863893	     -9.17531514	      2.20000226	      1.00331518	      1.02158979	     38.62506300	      4.13778931	    -11.50602302	     41.21607095	      0.71935614	      8.36229063	     -3.41046938	      0.00000000	     -3.28358240	     -7.94679189	    -15.92095764	     80.35160641	      1.40240009	    -11.79993835	    -14.11916748	      0.00000000
